# xmcd
#
# Track frame offsets:
#	150
#	12662
#	29659
#	41614
#	54439
#	68216
#	82689
#	102735
#	117380
#	130504
#	147222
#	162901
#	177389
#	193811
#	211641
#
# Disc length: 3116 seconds
#
# Revision: 1
# Processed by: cddbd v1.5.2PL0 Copyright (c) Steve Scherf et al.
# Submitted via: audiograbber 1.83.01
#
DISCID=d20c2a0f
DTITLE=Lonesome Groovers - Live at the church
DYEAR=2005
DGENRE=
TTITLE0=It's all over now
TTITLE1=The first cut is the deepest
TTITLE2=Bad moon rising
TTITLE3=Yer so bad
TTITLE4=Don't look back
TTITLE5=When i'm dead and gone
TTITLE6=I don't wanna talk about it
TTITLE7=Proud Mary
TTITLE8=You'd better move on
TTITLE9=People get ready
TTITLE10=Stuck in the middle with you
TTITLE11=Violent love
TTITLE12=Talk to me baby
TTITLE13=Stand by me
TTITLE14=Staring in the sun
EXTD=Recorded live at the Bauernkirche Iserlohn 15.12.2005
EXTT0=B. and S. Womack
EXTT1=C. Stevens
EXTT2=J. C. Fogerty
EXTT3=T. Petty and j. Lynne
EXTT4=W. Robinson and R. White
EXTT5=Gallagher and Lyle
EXTT6=D. Whitten
EXTT7=J. C. Fogerty
EXTT8=A. Alexander
EXTT9=C. Mayfield
EXTT10=G. Rafferty and J. Egan
EXTT11=O. Rush
EXTT12=E. James
EXTT13=B. E. King and J. Leiber and M. Stoller
EXTT14=Bono and The Edge
PLAYORDER=
